<mxfile host="app.diagrams.net" agent="Mozilla/5.0 (Windows NT 10.0; Win64; x64) AppleWebKit/537.36 (KHTML, like Gecko) Chrome/134.0.0.0 Safari/537.36" version="26.1.1">
  <diagram name="Страница — 1" id="M2AMJcvBsf_NyKbw0wwu">
    <mxGraphModel dx="683" dy="355" grid="1" gridSize="10" guides="1" tooltips="1" connect="1" arrows="1" fold="1" page="1" pageScale="1" pageWidth="1169" pageHeight="827" math="0" shadow="0">
      <root>
        <mxCell id="0" />
        <mxCell id="1" parent="0" />
        <mxCell id="CEUc6ZMy3qXSPVe10Tf9-1" value="&lt;font style=&quot;font-size: 16px;&quot;&gt;Price Comparison Graph&lt;/font&gt;" style="html=1;dropTarget=0;whiteSpace=wrap;" vertex="1" parent="1">
          <mxGeometry x="480" y="240" width="160" height="80" as="geometry" />
        </mxCell>
        <mxCell id="CEUc6ZMy3qXSPVe10Tf9-2" value="" style="shape=module;jettyWidth=8;jettyHeight=4;" vertex="1" parent="CEUc6ZMy3qXSPVe10Tf9-1">
          <mxGeometry x="1" width="20" height="20" relative="1" as="geometry">
            <mxPoint x="-27" y="7" as="offset" />
          </mxGeometry>
        </mxCell>
        <mxCell id="CEUc6ZMy3qXSPVe10Tf9-3" value="&lt;font style=&quot;font-size: 16px;&quot;&gt;Customer&lt;/font&gt;" style="html=1;dropTarget=0;whiteSpace=wrap;" vertex="1" parent="1">
          <mxGeometry x="480" y="450" width="160" height="80" as="geometry" />
        </mxCell>
        <mxCell id="CEUc6ZMy3qXSPVe10Tf9-4" value="" style="shape=module;jettyWidth=8;jettyHeight=4;" vertex="1" parent="CEUc6ZMy3qXSPVe10Tf9-3">
          <mxGeometry x="1" width="20" height="20" relative="1" as="geometry">
            <mxPoint x="-27" y="7" as="offset" />
          </mxGeometry>
        </mxCell>
        <mxCell id="CEUc6ZMy3qXSPVe10Tf9-7" value="" style="rounded=0;orthogonalLoop=1;jettySize=auto;html=1;endArrow=halfCircle;endFill=0;endSize=6;strokeWidth=1;sketch=0;exitX=0.5;exitY=1;exitDx=0;exitDy=0;" edge="1" target="CEUc6ZMy3qXSPVe10Tf9-9" parent="1" source="CEUc6ZMy3qXSPVe10Tf9-1">
          <mxGeometry relative="1" as="geometry">
            <mxPoint x="510" y="415" as="sourcePoint" />
          </mxGeometry>
        </mxCell>
        <mxCell id="CEUc6ZMy3qXSPVe10Tf9-8" value="" style="rounded=0;orthogonalLoop=1;jettySize=auto;html=1;endArrow=oval;endFill=0;sketch=0;sourcePerimeterSpacing=0;targetPerimeterSpacing=0;endSize=10;exitX=0.5;exitY=0;exitDx=0;exitDy=0;" edge="1" target="CEUc6ZMy3qXSPVe10Tf9-9" parent="1" source="CEUc6ZMy3qXSPVe10Tf9-3">
          <mxGeometry relative="1" as="geometry">
            <mxPoint x="470" y="415" as="sourcePoint" />
          </mxGeometry>
        </mxCell>
        <mxCell id="CEUc6ZMy3qXSPVe10Tf9-9" value="" style="ellipse;whiteSpace=wrap;html=1;align=center;aspect=fixed;fillColor=none;strokeColor=none;resizable=0;perimeter=centerPerimeter;rotatable=0;allowArrows=0;points=[];outlineConnect=1;" vertex="1" parent="1">
          <mxGeometry x="555" y="390" width="10" height="10" as="geometry" />
        </mxCell>
        <mxCell id="CEUc6ZMy3qXSPVe10Tf9-10" value="ICustomerActions" style="text;html=1;align=center;verticalAlign=middle;whiteSpace=wrap;rounded=0;" vertex="1" parent="1">
          <mxGeometry x="570" y="380" width="105" height="30" as="geometry" />
        </mxCell>
        <mxCell id="CEUc6ZMy3qXSPVe10Tf9-13" value="" style="ellipse;whiteSpace=wrap;html=1;align=center;aspect=fixed;fillColor=none;strokeColor=none;resizable=0;perimeter=centerPerimeter;rotatable=0;allowArrows=0;points=[];outlineConnect=1;" vertex="1" parent="1">
          <mxGeometry x="675" y="320" width="10" height="10" as="geometry" />
        </mxCell>
        <mxCell id="CEUc6ZMy3qXSPVe10Tf9-15" value="" style="rounded=0;orthogonalLoop=1;jettySize=auto;html=1;endArrow=oval;endFill=0;sketch=0;sourcePerimeterSpacing=0;targetPerimeterSpacing=0;endSize=10;exitX=1;exitY=0.5;exitDx=0;exitDy=0;" edge="1" parent="1" source="CEUc6ZMy3qXSPVe10Tf9-1">
          <mxGeometry relative="1" as="geometry">
            <mxPoint x="685" y="310" as="sourcePoint" />
            <mxPoint x="730" y="280" as="targetPoint" />
          </mxGeometry>
        </mxCell>
        <mxCell id="CEUc6ZMy3qXSPVe10Tf9-16" value="" style="rounded=0;orthogonalLoop=1;jettySize=auto;html=1;endArrow=oval;endFill=0;sketch=0;sourcePerimeterSpacing=0;targetPerimeterSpacing=0;endSize=10;exitX=1;exitY=0.5;exitDx=0;exitDy=0;" edge="1" parent="1" source="CEUc6ZMy3qXSPVe10Tf9-1">
          <mxGeometry relative="1" as="geometry">
            <mxPoint x="695" y="290" as="sourcePoint" />
            <mxPoint x="720" y="220" as="targetPoint" />
          </mxGeometry>
        </mxCell>
        <mxCell id="CEUc6ZMy3qXSPVe10Tf9-17" value="" style="rounded=0;orthogonalLoop=1;jettySize=auto;html=1;endArrow=oval;endFill=0;sketch=0;sourcePerimeterSpacing=0;targetPerimeterSpacing=0;endSize=10;exitX=1;exitY=0.5;exitDx=0;exitDy=0;" edge="1" parent="1" source="CEUc6ZMy3qXSPVe10Tf9-1">
          <mxGeometry relative="1" as="geometry">
            <mxPoint x="650" y="290" as="sourcePoint" />
            <mxPoint x="720" y="340" as="targetPoint" />
          </mxGeometry>
        </mxCell>
        <mxCell id="CEUc6ZMy3qXSPVe10Tf9-18" value="ICreateGraph" style="text;html=1;align=center;verticalAlign=middle;whiteSpace=wrap;rounded=0;" vertex="1" parent="1">
          <mxGeometry x="722.5" y="190" width="80" height="30" as="geometry" />
        </mxCell>
        <mxCell id="CEUc6ZMy3qXSPVe10Tf9-19" value="IDownloadGraph" style="text;html=1;align=center;verticalAlign=middle;whiteSpace=wrap;rounded=0;" vertex="1" parent="1">
          <mxGeometry x="740" y="265" width="100" height="30" as="geometry" />
        </mxCell>
        <mxCell id="CEUc6ZMy3qXSPVe10Tf9-20" value="IUpplyFilters" style="text;html=1;align=center;verticalAlign=middle;whiteSpace=wrap;rounded=0;" vertex="1" parent="1">
          <mxGeometry x="725" y="330" width="75" height="30" as="geometry" />
        </mxCell>
      </root>
    </mxGraphModel>
  </diagram>
</mxfile>
